<svg id="svg" version="1.1" width="400" height="225" viewBox="0 0 400 225" xmlns="http://www.w3.org/2000/svg" xmlns:xlink="http://www.w3.org/1999/xlink"><g id="svgg"><path id="path0" d="M245.059 7.881 C 242.570 12.209,238.454 19.350,235.913 23.750 C 231.289 31.754,214.381 61.039,211.663 65.750 C 210.869 67.125,205.133 77.063,198.914 87.833 C 192.696 98.604,184.862 112.179,181.505 118.000 L 175.401 128.583 171.784 128.628 C 169.794 128.653,168.167 128.643,168.167 128.607 C 168.167 128.571,168.625 127.726,169.185 126.729 C 169.745 125.732,171.085 123.342,172.162 121.417 C 173.240 119.492,175.491 115.479,177.165 112.500 C 178.839 109.521,181.090 105.508,182.167 103.583 C 183.244 101.658,185.493 97.646,187.166 94.667 C 188.838 91.688,191.276 87.337,192.582 85.000 C 193.889 82.662,196.326 78.313,197.998 75.333 C 201.388 69.296,204.842 63.114,205.146 62.542 L 205.345 62.167 193.298 62.168 L 181.250 62.169 180.938 62.709 C 180.766 63.007,179.557 65.162,178.251 67.500 C 176.945 69.837,174.468 74.262,172.746 77.333 C 171.024 80.404,168.438 85.017,167.000 87.583 C 165.561 90.150,163.123 94.500,161.581 97.250 C 160.040 100.000,157.604 104.350,156.168 106.917 C 153.888 110.993,148.574 120.478,145.151 126.583 L 144.029 128.583 140.515 128.628 C 138.582 128.653,137.000 128.628,137.000 128.572 C 137.000 128.517,137.533 127.521,138.185 126.361 C 139.385 124.224,142.718 118.273,146.042 112.333 C 147.043 110.546,148.548 107.709,149.389 106.028 L 150.917 102.973 150.917 101.525 C 150.917 98.230,149.280 96.693,144.426 95.432 C 142.519 94.936,142.336 94.834,143.347 94.832 C 150.124 94.815,156.001 91.906,159.994 86.590 C 166.184 78.351,168.742 70.516,166.435 66.863 C 163.860 62.784,161.005 62.345,136.232 62.217 L 120.214 62.135 118.879 64.526 C 118.144 65.841,115.986 69.692,114.083 73.083 C 112.180 76.475,109.742 80.825,108.666 82.750 C 107.589 84.675,105.340 88.688,103.668 91.667 C 101.995 94.646,99.558 98.996,98.252 101.333 C 96.946 103.671,94.320 108.358,92.417 111.750 C 90.514 115.142,87.889 119.829,86.584 122.167 C 83.255 128.131,83.300 128.052,83.100 128.375 C 82.934 128.644,65.333 128.868,65.333 128.602 C 65.333 128.537,67.686 124.312,72.166 116.333 C 73.478 113.996,75.729 109.983,77.167 107.417 C 78.606 104.850,81.044 100.500,82.587 97.750 C 84.129 95.000,86.566 90.650,88.002 88.083 C 89.438 85.517,91.569 81.710,92.739 79.625 L 94.866 75.833 102.060 75.833 L 109.255 75.833 111.132 72.458 C 112.165 70.602,113.870 67.551,114.922 65.678 C 115.973 63.805,116.833 62.249,116.833 62.220 C 116.833 62.191,104.965 62.167,90.458 62.167 L 64.083 62.167 62.894 64.292 C 62.240 65.461,60.534 68.507,59.102 71.063 C 57.671 73.618,56.500 75.737,56.500 75.771 C 56.500 75.805,59.688 75.833,63.583 75.833 C 67.479 75.833,70.667 75.876,70.667 75.929 C 70.667 75.982,70.376 76.526,70.021 77.138 C 69.369 78.260,65.952 84.344,61.581 92.167 C 60.274 94.504,57.650 99.192,55.748 102.583 C 53.847 105.975,51.222 110.662,49.914 113.000 C 48.607 115.337,46.111 119.800,44.367 122.917 L 41.196 128.583 20.598 128.626 L 0.000 128.668 0.000 133.834 L 0.000 139.000 129.467 139.000 L 258.934 139.000 259.634 140.230 C 260.018 140.907,260.333 141.492,260.333 141.532 C 260.333 141.572,201.758 141.599,130.167 141.594 L 0.000 141.583 0.000 146.667 L 0.000 151.750 132.958 151.739 C 206.085 151.733,266.038 151.786,266.185 151.857 C 266.433 151.977,267.833 154.124,267.833 154.385 C 267.833 154.448,207.571 154.500,133.917 154.500 L 0.000 154.500 0.000 158.083 L 0.000 161.667 141.851 161.667 C 276.878 161.667,283.697 161.653,283.592 161.375 C 283.454 161.010,278.752 152.769,277.584 150.843 C 277.107 150.059,275.533 147.354,274.085 144.833 C 272.637 142.313,264.558 128.300,256.132 113.694 L 240.812 87.138 241.503 85.976 C 242.378 84.502,242.199 84.366,244.393 88.170 C 245.423 89.956,248.282 94.904,250.746 99.167 C 253.210 103.429,256.026 108.304,257.005 110.000 C 258.936 113.348,260.179 115.497,266.836 127.000 C 272.735 137.193,272.982 137.618,277.205 144.903 C 281.267 151.910,285.052 158.408,286.192 160.333 L 286.932 161.583 292.721 161.627 L 298.511 161.671 298.261 161.187 C 297.864 160.420,282.762 134.148,270.132 112.250 C 268.757 109.867,267.027 106.867,266.287 105.583 C 265.547 104.300,264.443 102.388,263.833 101.333 C 263.224 100.279,262.119 98.367,261.378 97.083 C 260.638 95.800,258.950 92.875,257.628 90.583 C 256.305 88.292,254.036 84.354,252.586 81.833 C 251.135 79.313,249.585 76.640,249.141 75.894 C 248.697 75.147,248.333 74.448,248.333 74.339 C 248.333 73.984,249.697 71.797,249.829 71.942 C 249.899 72.020,253.092 77.521,256.923 84.167 C 264.282 96.930,266.106 100.091,269.642 106.208 C 270.847 108.294,272.798 111.669,273.976 113.708 C 294.996 150.089,301.087 160.566,301.637 161.294 L 301.921 161.671 307.618 161.627 L 313.314 161.583 309.310 154.583 C 307.109 150.733,305.076 147.171,304.793 146.667 C 303.952 145.166,303.797 144.896,301.748 141.333 C 300.667 139.454,299.655 137.692,299.498 137.417 C 298.653 135.929,291.509 123.540,280.662 104.750 C 273.942 93.108,267.645 82.196,266.668 80.500 C 265.692 78.804,262.882 73.934,260.423 69.677 C 257.964 65.421,255.920 61.815,255.881 61.664 C 255.842 61.514,256.328 60.496,256.963 59.404 C 257.597 58.311,258.830 56.179,259.702 54.667 C 261.882 50.886,274.301 29.375,278.416 22.250 C 280.269 19.042,283.896 12.762,286.476 8.295 C 289.056 3.827,291.167 0.134,291.167 0.086 C 291.167 0.039,288.476 0.000,285.187 0.000 L 279.207 0.000 262.826 28.375 C 246.823 56.095,244.607 59.943,239.629 68.667 C 238.295 71.004,236.249 74.567,235.081 76.583 C 233.913 78.600,232.809 80.512,232.626 80.833 C 232.443 81.154,231.337 83.067,230.167 85.083 C 228.997 87.100,227.892 89.013,227.712 89.333 C 227.532 89.654,226.559 91.342,225.550 93.083 C 222.603 98.173,221.351 100.342,218.962 104.500 C 217.724 106.654,216.559 108.679,216.373 109.000 C 215.432 110.620,208.874 122.007,207.207 124.917 C 206.156 126.750,205.200 128.352,205.083 128.476 C 204.893 128.677,202.240 128.821,202.094 128.639 C 202.070 128.608,205.001 123.483,208.608 117.250 C 212.216 111.017,216.096 104.304,217.232 102.333 C 218.368 100.362,221.507 94.925,224.207 90.250 C 226.907 85.575,231.779 77.137,235.034 71.500 C 241.146 60.912,245.338 53.653,251.275 43.375 C 253.168 40.098,259.475 29.167,265.292 19.083 C 271.108 9.000,275.973 0.581,276.104 0.375 L 276.341 0.000 270.379 0.005 L 264.417 0.010 259.167 9.123 C 251.516 22.402,249.541 25.829,248.139 28.250 C 247.449 29.442,242.533 37.954,237.215 47.167 C 231.896 56.379,224.600 69.017,221.000 75.250 C 217.400 81.483,213.591 88.083,212.535 89.917 C 211.480 91.750,209.402 95.350,207.918 97.917 C 206.434 100.483,204.204 104.346,202.963 106.500 C 201.721 108.654,199.731 112.104,198.540 114.167 C 194.386 121.360,193.958 122.103,192.210 125.167 C 191.242 126.862,190.360 128.349,190.249 128.470 C 190.047 128.691,187.592 128.814,187.391 128.613 C 187.275 128.497,186.863 129.229,193.744 117.333 C 196.846 111.971,202.999 101.321,207.418 93.667 C 211.837 86.013,219.523 72.700,224.498 64.083 C 229.473 55.467,236.618 43.092,240.376 36.583 C 244.134 30.075,248.053 23.287,249.086 21.500 C 252.743 15.168,255.807 9.862,258.323 5.500 C 259.725 3.071,261.019 0.840,261.199 0.542 L 261.527 0.000 255.555 0.006 L 249.583 0.012 245.059 7.881 M263.500 61.386 C 263.500 61.506,265.198 64.455,276.658 84.250 C 277.455 85.625,278.713 87.800,279.454 89.083 C 282.094 93.653,292.386 111.455,293.666 113.667 C 294.382 114.904,296.726 118.954,298.875 122.667 C 301.024 126.379,303.367 130.429,304.082 131.667 C 304.797 132.904,306.860 136.467,308.666 139.583 C 310.473 142.700,312.374 145.981,312.892 146.875 C 315.104 150.693,315.663 151.653,316.394 152.889 C 316.819 153.607,317.167 154.223,317.167 154.259 C 317.167 154.295,317.496 154.870,317.899 155.537 C 318.302 156.204,319.285 157.856,320.082 159.208 L 321.533 161.667 353.007 161.667 L 384.481 161.667 385.488 160.735 C 389.449 157.067,388.155 151.837,379.552 136.750 C 378.455 134.825,375.584 129.837,373.172 125.667 C 367.786 116.351,367.419 115.715,362.583 107.333 C 359.479 101.952,358.707 100.614,357.533 98.583 C 347.322 80.908,343.867 76.142,338.000 71.641 C 329.598 65.195,321.808 62.761,306.250 61.721 C 302.533 61.472,263.500 61.166,263.500 61.386 M141.849 74.258 C 144.018 74.970,143.909 76.199,141.261 80.917 C 137.329 87.919,136.197 88.840,131.180 89.116 C 128.940 89.239,128.997 89.534,130.685 86.525 C 131.336 85.366,133.145 82.129,134.705 79.333 C 136.265 76.537,137.624 74.146,137.726 74.020 C 137.962 73.726,140.711 73.885,141.849 74.258 M310.878 79.402 C 312.406 79.739,313.903 80.434,314.973 81.305 C 317.243 83.150,318.036 84.384,327.416 100.667 C 328.868 103.188,330.560 106.112,331.175 107.167 C 331.791 108.221,333.248 110.733,334.413 112.750 C 336.789 116.862,337.710 118.456,342.462 126.667 C 352.697 144.354,353.150 145.861,348.550 146.897 C 347.891 147.045,346.653 147.164,345.800 147.162 L 344.250 147.157 343.500 145.794 C 343.087 145.045,342.482 143.978,342.155 143.424 C 341.517 142.345,339.993 139.707,336.998 134.500 C 334.755 130.600,329.551 121.590,326.747 116.750 C 325.631 114.825,323.270 110.737,321.500 107.667 C 319.730 104.596,317.781 101.221,317.170 100.167 C 316.558 99.112,315.452 97.200,314.711 95.917 C 313.971 94.633,311.483 90.331,309.182 86.356 C 306.882 82.381,305.000 79.088,305.000 79.040 C 305.000 78.864,309.775 79.159,310.878 79.402 M239.541 105.500 C 242.054 109.854,246.078 116.819,248.482 120.976 C 250.886 125.134,252.818 128.571,252.775 128.614 C 252.655 128.734,217.155 128.710,217.035 128.590 C 216.977 128.532,217.008 128.357,217.105 128.201 C 217.202 128.045,221.202 121.129,225.993 112.833 C 230.785 104.537,234.742 97.689,234.786 97.614 C 234.897 97.426,234.499 96.766,239.541 105.500 M127.500 100.174 C 129.563 100.900,129.246 102.273,125.442 109.098 C 123.083 113.329,118.522 121.492,116.044 125.917 L 114.550 128.583 110.839 128.628 C 107.824 128.665,107.144 128.632,107.213 128.454 C 107.259 128.333,108.139 126.738,109.168 124.909 C 110.198 123.080,112.110 119.671,113.417 117.333 C 114.725 114.996,116.974 110.983,118.416 108.417 C 119.857 105.850,121.535 102.860,122.143 101.771 L 123.250 99.792 125.083 99.881 C 126.092 99.929,127.179 100.062,127.500 100.174 " stroke="none" fill="#e8bf16" fill-rule="evenodd"></path><path id="path1" d="M0.000 64.250 L 0.000 128.500 20.560 128.500 L 41.120 128.500 41.643 127.542 C 41.931 127.015,42.399 126.171,42.685 125.667 C 43.323 124.538,43.412 124.380,46.748 118.417 C 48.236 115.758,50.485 111.746,51.746 109.500 C 55.031 103.649,58.800 96.902,59.381 95.833 C 59.655 95.329,60.121 94.504,60.417 94.000 C 60.865 93.239,62.480 90.368,64.637 86.500 C 64.867 86.087,65.203 85.487,65.384 85.167 C 67.153 82.029,70.500 75.976,70.500 75.915 C 70.500 75.872,67.320 75.817,63.433 75.793 L 56.367 75.750 59.151 70.750 C 60.683 68.000,62.148 65.375,62.407 64.917 C 62.667 64.458,63.138 63.615,63.455 63.042 L 64.031 62.000 90.515 62.000 C 105.082 62.000,117.000 62.043,117.000 62.096 C 117.000 62.174,114.315 67.041,112.455 70.333 C 112.222 70.746,111.440 72.133,110.716 73.417 L 109.402 75.750 102.173 75.833 L 94.945 75.917 94.616 76.500 C 94.436 76.821,93.260 78.921,92.004 81.167 C 89.078 86.399,84.323 94.886,83.833 95.750 C 83.626 96.117,82.239 98.592,80.751 101.250 C 79.264 103.908,77.015 107.921,75.754 110.167 C 74.493 112.412,72.394 116.162,71.089 118.500 C 69.784 120.837,68.209 123.650,67.588 124.750 C 66.968 125.850,66.239 127.144,65.968 127.625 L 65.476 128.500 74.196 128.497 L 82.917 128.494 84.190 126.205 C 84.890 124.947,86.267 122.492,87.249 120.750 C 88.232 119.008,89.339 117.021,89.710 116.333 C 90.081 115.646,90.439 115.008,90.507 114.917 C 90.575 114.825,91.716 112.800,93.042 110.417 C 94.369 108.033,95.624 105.783,95.832 105.417 C 96.188 104.790,100.390 97.300,101.303 95.667 C 101.533 95.254,101.870 94.654,102.051 94.333 C 102.232 94.013,103.408 91.912,104.664 89.667 C 108.475 82.855,112.433 75.789,112.834 75.083 C 113.179 74.475,116.475 68.579,117.586 66.583 C 117.841 66.125,118.537 64.898,119.132 63.857 L 120.215 61.964 135.483 62.048 C 159.285 62.179,162.518 62.561,165.561 65.605 C 168.389 68.432,168.097 72.671,164.617 79.333 C 159.000 90.087,154.292 93.821,145.167 94.759 C 143.526 94.928,143.496 95.067,145.013 95.473 C 149.089 96.564,150.925 98.270,151.124 101.151 C 151.254 103.020,150.215 105.191,143.337 117.417 C 143.131 117.783,142.117 119.583,141.084 121.417 C 138.817 125.442,138.700 125.651,138.007 126.917 C 137.706 127.467,137.393 127.988,137.313 128.075 C 136.966 128.451,137.344 128.500,140.564 128.500 L 143.961 128.500 146.124 124.625 C 147.314 122.494,148.459 120.450,148.667 120.083 C 148.876 119.717,150.262 117.242,151.748 114.583 C 154.998 108.766,159.810 100.174,160.334 99.250 C 160.542 98.883,161.592 97.008,162.667 95.083 C 164.833 91.205,164.639 91.550,167.249 86.917 C 168.282 85.083,169.336 83.208,169.591 82.750 C 169.846 82.292,170.203 81.654,170.383 81.333 C 170.563 81.012,171.927 78.575,173.414 75.917 C 178.576 66.685,180.845 62.644,181.045 62.323 C 181.242 62.007,205.500 61.781,205.500 62.094 C 205.500 62.146,204.646 63.702,203.603 65.552 C 202.560 67.403,201.497 69.292,201.242 69.750 C 200.987 70.208,200.630 70.846,200.450 71.167 C 200.269 71.487,199.054 73.662,197.749 76.000 C 196.445 78.337,194.156 82.425,192.663 85.083 C 191.170 87.742,189.761 90.254,189.530 90.667 C 189.300 91.079,188.964 91.679,188.783 92.000 C 188.602 92.321,187.385 94.496,186.079 96.833 C 184.772 99.171,182.900 102.508,181.917 104.250 C 180.935 105.992,179.827 107.979,179.457 108.667 C 179.086 109.354,178.727 109.992,178.659 110.083 C 178.591 110.175,177.490 112.125,176.212 114.417 C 172.524 121.030,169.171 127.022,168.725 127.795 L 168.315 128.507 171.771 128.462 L 175.226 128.417 175.922 127.250 C 176.305 126.608,177.806 124.021,179.258 121.500 C 180.709 118.979,182.958 115.079,184.255 112.833 C 185.552 110.587,188.453 105.563,190.702 101.667 C 192.951 97.771,196.351 91.883,198.257 88.583 C 200.164 85.283,202.522 81.196,203.499 79.500 C 204.476 77.804,209.087 69.817,213.746 61.750 C 228.909 35.496,235.853 23.468,237.463 20.667 C 238.332 19.154,239.546 17.054,240.160 16.000 C 240.775 14.946,242.465 12.021,243.916 9.500 C 245.368 6.979,247.180 3.844,247.944 2.534 C 248.708 1.223,249.333 0.117,249.333 0.076 C 249.333 0.034,193.233 0.000,124.667 0.000 L 0.000 0.000 0.000 64.250 M261.567 0.292 C 261.467 0.452,260.650 1.858,259.750 3.417 C 256.455 9.125,244.505 29.832,242.918 32.583 C 242.019 34.142,240.633 36.542,239.837 37.917 C 236.714 43.310,224.983 63.628,221.504 69.667 C 220.527 71.362,218.990 74.025,218.088 75.583 C 217.186 77.142,213.396 83.704,209.664 90.167 C 205.933 96.629,199.781 107.279,195.994 113.833 C 188.239 127.253,187.667 128.255,187.667 128.406 C 187.667 128.466,188.207 128.493,188.868 128.466 L 190.069 128.417 191.089 126.667 C 191.649 125.704,192.735 123.829,193.500 122.500 C 194.265 121.171,195.390 119.221,196.000 118.167 C 197.127 116.219,197.924 114.837,202.205 107.417 C 203.527 105.125,206.039 100.775,207.786 97.750 C 209.533 94.725,212.629 89.362,214.666 85.833 C 216.703 82.304,220.040 76.529,222.081 73.000 C 224.122 69.471,225.961 66.283,226.166 65.917 C 226.371 65.550,227.497 63.600,228.667 61.583 C 229.838 59.567,231.615 56.492,232.617 54.750 C 233.619 53.008,235.176 50.308,236.076 48.750 C 237.698 45.944,239.091 43.531,241.417 39.500 C 242.078 38.354,243.181 36.442,243.869 35.250 C 244.557 34.058,245.531 32.371,246.033 31.500 C 246.938 29.931,255.679 14.804,258.553 9.833 C 259.374 8.412,260.195 6.987,260.376 6.667 C 260.558 6.346,261.400 4.883,262.247 3.417 C 263.095 1.950,263.876 0.581,263.983 0.375 C 264.250 -0.137,261.882 -0.218,261.567 0.292 M275.462 1.875 C 274.872 2.906,272.828 6.450,270.918 9.750 C 269.009 13.050,266.647 17.137,265.670 18.833 C 261.596 25.900,258.595 31.099,256.915 34.000 C 255.933 35.696,253.984 39.071,252.583 41.500 C 251.182 43.929,249.494 46.854,248.831 48.000 C 248.168 49.146,246.762 51.583,245.707 53.417 C 244.652 55.250,243.094 57.950,242.246 59.417 C 240.213 62.930,236.177 69.912,234.249 73.250 C 230.302 80.084,227.506 84.927,225.253 88.833 C 223.904 91.171,221.955 94.546,220.921 96.333 C 219.886 98.121,217.331 102.546,215.241 106.167 C 213.152 109.787,210.229 114.850,208.745 117.417 C 207.262 119.983,205.215 123.527,204.196 125.292 L 202.345 128.500 203.569 128.500 C 204.978 128.500,204.802 128.645,206.088 126.417 C 206.938 124.943,209.479 120.544,210.353 119.032 C 210.529 118.728,210.959 117.978,211.311 117.365 C 211.880 116.371,214.570 111.715,215.325 110.417 C 215.485 110.142,216.481 108.410,217.539 106.569 C 218.596 104.728,219.657 102.911,219.897 102.531 C 220.137 102.151,220.333 101.807,220.333 101.767 C 220.333 101.727,220.791 100.919,221.351 99.972 C 221.910 99.025,222.556 97.913,222.786 97.502 C 223.017 97.090,223.920 95.515,224.795 94.002 C 225.670 92.488,226.520 91.011,226.684 90.719 C 226.848 90.427,227.174 89.885,227.408 89.514 C 227.642 89.143,227.833 88.799,227.833 88.750 C 227.833 88.701,228.025 88.357,228.259 87.986 C 228.493 87.615,228.819 87.073,228.983 86.781 C 229.147 86.489,229.818 85.322,230.474 84.188 C 231.130 83.054,231.667 82.100,231.667 82.066 C 231.667 82.033,231.929 81.596,232.250 81.095 C 232.571 80.593,232.833 80.147,232.833 80.103 C 232.833 80.059,233.396 79.073,234.083 77.911 C 234.771 76.750,235.333 75.768,235.333 75.730 C 235.333 75.691,235.509 75.380,235.724 75.038 C 236.136 74.382,239.673 68.268,240.437 66.891 C 240.683 66.447,241.061 65.822,241.276 65.503 C 241.491 65.184,241.667 64.870,241.667 64.806 C 241.667 64.679,243.555 61.391,256.247 39.417 C 259.530 33.733,264.316 25.446,266.883 21.000 C 270.889 14.062,277.280 2.998,278.604 0.708 L 279.014 -0.000 277.775 -0.000 L 276.535 -0.000 275.462 1.875 M289.500 3.369 C 288.446 5.214,287.015 7.705,286.321 8.904 C 285.627 10.102,283.872 13.146,282.420 15.667 C 280.968 18.188,279.279 21.112,278.667 22.167 C 278.054 23.221,276.266 26.315,274.693 29.042 C 265.605 44.799,258.862 56.472,257.580 58.667 C 255.765 61.775,255.836 61.378,256.796 63.013 C 257.249 63.785,258.504 65.954,259.584 67.833 C 261.418 71.023,270.547 86.835,273.248 91.500 C 274.556 93.760,295.591 130.204,297.633 133.750 C 299.715 137.364,306.287 148.755,307.827 151.417 C 308.622 152.792,309.899 155.004,310.665 156.333 C 311.431 157.662,312.557 159.612,313.167 160.667 C 313.776 161.721,314.881 163.633,315.621 164.917 C 316.361 166.200,318.632 170.137,320.667 173.667 C 322.702 177.196,324.972 181.133,325.712 182.417 C 326.453 183.700,327.557 185.612,328.167 186.667 C 328.776 187.721,329.902 189.671,330.668 191.000 C 333.947 196.693,334.672 197.942,336.758 201.500 C 337.967 203.563,339.715 206.582,340.643 208.209 C 341.571 209.837,342.882 212.125,343.558 213.293 C 347.226 219.638,348.160 221.255,349.164 223.000 L 350.266 224.917 375.133 224.959 L 400.000 225.001 400.000 112.501 L 400.000 0.000 345.708 0.007 L 291.417 0.014 289.500 3.369 M303.917 61.477 C 319.678 62.356,327.166 64.281,335.155 69.506 C 343.612 75.037,346.013 78.320,362.333 106.667 C 363.099 107.996,364.224 109.946,364.833 111.000 C 365.443 112.054,366.568 114.004,367.333 115.333 C 368.099 116.662,369.228 118.612,369.843 119.667 C 370.458 120.721,371.129 121.883,371.334 122.250 C 371.539 122.617,372.663 124.567,373.833 126.583 C 375.003 128.600,376.128 130.550,376.333 130.917 C 376.538 131.283,377.211 132.446,377.828 133.500 C 388.803 152.233,390.173 157.978,384.557 161.712 C 380.024 164.726,376.736 165.000,345.155 165.000 L 323.237 165.000 322.720 164.125 C 322.435 163.644,321.682 162.350,321.045 161.250 C 320.409 160.150,318.760 157.300,317.380 154.917 C 316.001 152.533,314.705 150.283,314.500 149.917 C 314.295 149.550,313.622 148.387,313.003 147.333 C 312.384 146.279,311.316 144.442,310.629 143.250 C 308.899 140.247,306.436 135.979,305.003 133.500 C 304.340 132.354,302.802 129.692,301.584 127.583 C 300.366 125.475,298.848 122.850,298.209 121.750 C 295.846 117.679,295.081 116.356,293.582 113.750 C 292.739 112.283,291.615 110.333,291.084 109.417 C 290.553 108.500,289.416 106.532,288.556 105.042 C 287.696 103.553,286.244 101.049,285.330 99.477 C 284.415 97.906,283.667 96.591,283.667 96.557 C 283.667 96.522,283.491 96.214,283.276 95.872 C 283.061 95.530,282.321 94.275,281.633 93.083 C 280.945 91.892,279.947 90.167,279.417 89.250 C 278.379 87.455,276.684 84.520,274.726 81.125 C 270.768 74.265,271.052 74.755,267.279 68.250 C 266.641 67.150,265.950 65.950,265.744 65.583 C 265.537 65.217,264.910 64.142,264.351 63.195 C 263.791 62.248,263.333 61.397,263.333 61.303 C 263.333 61.079,299.566 61.234,303.917 61.477 M249.089 73.250 L 248.473 74.352 249.131 75.468 C 249.833 76.657,251.312 79.215,253.870 83.667 C 254.740 85.179,255.885 87.167,256.416 88.083 C 256.946 89.000,257.943 90.725,258.631 91.917 C 259.319 93.108,260.688 95.471,261.672 97.167 C 262.656 98.862,263.629 100.550,263.834 100.917 C 264.363 101.861,268.300 108.685,269.749 111.167 C 270.418 112.313,271.132 113.550,271.335 113.917 C 271.539 114.283,272.663 116.233,273.833 118.250 C 275.003 120.267,276.128 122.217,276.333 122.583 C 276.538 122.950,277.664 124.900,278.834 126.917 C 280.004 128.933,281.150 130.921,281.380 131.333 C 281.610 131.746,282.257 132.858,282.816 133.805 C 283.376 134.752,283.833 135.552,283.833 135.583 C 283.833 135.614,284.181 136.227,284.605 136.945 C 285.699 138.794,288.376 143.430,288.920 144.418 C 289.172 144.876,289.435 145.325,289.505 145.417 C 289.574 145.508,289.777 145.846,289.956 146.167 C 290.135 146.487,290.996 147.987,291.870 149.500 C 292.744 151.012,293.628 152.550,293.833 152.917 C 294.039 153.283,295.185 155.271,296.379 157.333 C 297.573 159.396,298.678 161.308,298.833 161.583 C 298.989 161.858,300.677 164.783,302.584 168.083 C 304.491 171.383,306.179 174.308,306.334 174.583 C 306.489 174.858,307.593 176.771,308.788 178.833 C 309.982 180.896,311.128 182.883,311.333 183.250 C 311.539 183.617,312.685 185.604,313.880 187.667 C 315.075 189.729,316.763 192.654,317.632 194.167 C 318.501 195.679,319.717 197.779,320.334 198.833 C 320.951 199.887,322.017 201.725,322.704 202.917 C 323.391 204.108,324.371 205.808,324.882 206.694 C 325.392 207.580,326.144 208.930,326.551 209.694 C 326.959 210.458,329.093 214.196,331.294 218.000 L 335.297 224.917 336.649 224.965 L 338.002 225.014 337.190 223.632 C 336.743 222.872,335.816 221.275,335.129 220.083 C 333.937 218.014,332.247 215.089,329.219 209.854 C 328.457 208.536,327.833 207.434,327.833 207.406 C 327.833 207.361,326.531 205.094,320.752 195.083 C 317.910 190.161,312.966 181.602,311.750 179.500 C 311.087 178.354,308.574 174.004,306.165 169.833 C 301.575 161.885,300.308 159.692,293.167 147.333 C 290.757 143.162,287.682 137.837,286.334 135.500 C 284.143 131.701,267.624 103.096,264.582 97.833 C 259.237 88.587,254.252 79.949,252.367 76.667 C 251.130 74.512,250.025 72.615,249.912 72.449 C 249.727 72.180,249.642 72.263,249.089 73.250 M137.055 75.406 C 135.343 78.472,130.320 87.397,129.722 88.436 L 129.327 89.123 130.539 89.056 C 136.041 88.756,137.201 87.901,140.798 81.500 C 144.457 74.986,144.283 74.319,138.825 73.956 L 137.899 73.895 137.055 75.406 M305.167 79.101 C 305.167 79.161,306.283 81.131,307.647 83.480 C 309.012 85.828,310.296 88.050,310.501 88.417 C 310.706 88.783,311.639 90.396,312.574 92.000 C 313.509 93.604,314.900 96.004,315.666 97.333 C 316.431 98.662,317.557 100.612,318.167 101.667 C 318.776 102.721,319.901 104.671,320.667 106.000 C 322.201 108.665,323.468 110.857,325.869 115.000 C 326.746 116.513,328.607 119.737,330.005 122.167 C 331.403 124.596,332.750 126.921,332.998 127.333 C 333.247 127.746,334.074 129.171,334.837 130.500 C 335.600 131.829,336.724 133.779,337.333 134.833 C 337.943 135.887,339.069 137.837,339.834 139.167 C 340.600 140.496,341.948 142.821,342.830 144.333 L 344.433 147.083 345.925 147.032 C 348.738 146.935,350.616 146.319,351.122 145.328 C 351.709 144.181,349.975 139.966,346.254 133.500 C 345.595 132.354,344.847 131.042,344.592 130.583 C 344.337 130.125,343.604 128.850,342.962 127.750 C 340.806 124.051,339.357 121.550,336.833 117.167 C 336.068 115.837,334.980 113.962,334.415 113.000 C 333.850 112.037,333.180 110.875,332.925 110.417 C 332.328 109.342,327.593 101.149,327.002 100.167 C 326.753 99.754,325.925 98.329,325.162 97.000 C 316.837 82.508,315.645 80.946,312.076 79.843 C 310.526 79.364,305.167 78.789,305.167 79.101 M241.704 86.043 C 241.403 86.615,241.159 87.142,241.162 87.214 C 241.167 87.366,241.685 88.268,254.666 110.750 C 260.012 120.008,265.035 128.708,265.829 130.083 C 270.266 137.772,272.090 140.927,274.841 145.667 C 279.185 153.154,303.588 195.392,307.869 202.833 C 311.911 209.860,315.674 216.414,318.606 221.536 L 320.583 224.989 321.792 224.995 C 322.456 224.998,323.000 224.962,323.000 224.915 C 323.000 224.840,320.394 220.281,318.667 217.333 C 318.036 216.256,314.002 209.288,312.141 206.060 C 311.605 205.131,311.167 204.319,311.167 204.256 C 311.167 204.155,306.968 196.840,300.164 185.083 C 298.997 183.067,295.962 177.817,293.421 173.417 C 290.880 169.017,287.933 163.917,286.871 162.083 C 283.353 156.004,282.736 154.936,281.332 152.500 C 279.764 149.778,277.066 145.118,275.250 141.997 C 274.583 140.850,273.828 139.537,273.573 139.080 C 273.319 138.624,272.347 136.938,271.413 135.333 C 269.766 132.501,268.948 131.089,265.627 125.333 C 264.755 123.821,263.498 121.646,262.835 120.500 C 262.172 119.354,260.767 116.917,259.714 115.083 C 258.660 113.250,257.741 111.675,257.671 111.583 C 257.602 111.492,257.359 111.079,257.131 110.667 C 256.336 109.225,252.868 103.216,252.436 102.531 C 252.196 102.151,252.000 101.806,252.000 101.765 C 252.000 101.723,251.438 100.739,250.750 99.578 C 250.063 98.416,249.500 97.441,249.500 97.411 C 249.500 97.381,248.938 96.406,248.250 95.245 C 247.563 94.083,247.000 93.108,247.000 93.078 C 247.000 93.048,246.438 92.073,245.750 90.911 C 245.063 89.750,244.500 88.768,244.500 88.729 C 244.500 88.690,244.212 88.192,243.859 87.621 C 243.507 87.050,243.016 86.227,242.769 85.792 C 242.224 84.833,242.355 84.802,241.704 86.043 M234.322 98.793 C 233.923 99.529,232.022 102.837,229.750 106.750 C 229.217 107.667,228.242 109.354,227.583 110.500 C 226.924 111.646,225.950 113.333,225.419 114.250 C 224.888 115.167,223.891 116.892,223.203 118.083 C 222.515 119.275,221.018 121.862,219.876 123.833 C 218.734 125.804,217.660 127.660,217.489 127.958 L 217.178 128.500 234.839 128.500 C 244.553 128.500,252.500 128.464,252.500 128.421 C 252.500 128.312,252.446 128.219,238.783 104.588 C 236.717 101.015,234.965 98.072,234.889 98.048 C 234.812 98.023,234.557 98.359,234.322 98.793 M122.411 101.532 C 121.887 102.477,121.367 103.400,121.255 103.583 C 121.143 103.767,120.803 104.367,120.499 104.917 C 120.194 105.467,119.797 106.179,119.616 106.500 C 119.435 106.821,118.259 108.921,117.002 111.167 C 113.039 118.252,109.225 125.059,108.832 125.750 C 108.624 126.117,108.194 126.885,107.878 127.458 L 107.303 128.500 110.887 128.500 L 114.471 128.500 116.629 124.625 C 117.816 122.494,118.956 120.450,119.162 120.083 C 122.810 113.611,123.479 112.420,124.456 110.667 C 124.737 110.162,125.222 109.300,125.533 108.750 C 129.783 101.235,129.697 100.301,124.723 99.918 L 123.363 99.813 122.411 101.532 M0.000 140.250 L 0.000 141.333 130.014 141.333 L 260.027 141.333 259.703 140.792 C 259.525 140.494,259.241 140.006,259.071 139.708 L 258.761 139.167 129.381 139.167 L 0.000 139.167 0.000 140.250 M0.000 153.083 L 0.000 154.167 133.667 154.167 C 207.183 154.167,267.333 154.137,267.333 154.101 C 267.333 154.065,267.086 153.596,266.785 153.059 L 266.236 152.083 133.118 152.042 L 0.000 152.000 0.000 153.083 M0.000 194.917 L 0.000 225.000 154.180 225.000 L 308.361 225.000 308.034 224.458 C 307.854 224.160,306.003 220.954,303.920 217.333 C 301.836 213.713,299.701 210.037,299.175 209.167 C 298.648 208.296,297.593 206.496,296.830 205.167 C 296.066 203.838,294.943 201.887,294.333 200.833 C 293.724 199.779,292.599 197.829,291.833 196.500 C 291.068 195.171,289.943 193.221,289.333 192.167 C 288.724 191.112,287.619 189.200,286.879 187.917 C 286.139 186.633,284.450 183.708,283.127 181.417 C 281.803 179.125,279.161 174.550,277.255 171.250 C 275.349 167.950,273.716 165.156,273.625 165.042 C 273.493 164.875,245.914 164.833,136.730 164.833 L 0.000 164.833 0.000 194.917 " stroke="none" fill="#1c1c1b" fill-rule="evenodd"></path><path id="path2" d="M308.583 153.333 C 308.726 153.608,308.879 153.833,308.925 153.833 C 308.971 153.833,308.892 153.608,308.750 153.333 C 308.608 153.058,308.454 152.833,308.408 152.833 C 308.362 152.833,308.441 153.058,308.583 153.333 M267.417 153.833 L 267.675 154.333 133.796 154.375 L -0.083 154.417 133.875 154.458 C 207.552 154.481,267.833 154.459,267.833 154.408 C 267.833 154.250,267.329 153.333,267.241 153.333 C 267.196 153.333,267.274 153.558,267.417 153.833 M309.250 154.500 C 309.392 154.775,309.546 155.000,309.592 155.000 C 309.638 155.000,309.559 154.775,309.417 154.500 C 309.274 154.225,309.121 154.000,309.075 154.000 C 309.029 154.000,309.108 154.225,309.250 154.500 M309.917 155.667 C 310.059 155.942,310.213 156.167,310.259 156.167 C 310.304 156.167,310.226 155.942,310.083 155.667 C 309.941 155.392,309.787 155.167,309.741 155.167 C 309.696 155.167,309.774 155.392,309.917 155.667 M295.583 156.500 C 295.726 156.775,295.879 157.000,295.925 157.000 C 295.971 157.000,295.892 156.775,295.750 156.500 C 295.608 156.225,295.454 156.000,295.408 156.000 C 295.362 156.000,295.441 156.225,295.583 156.500 M310.745 157.083 C 311.001 157.542,311.288 157.992,311.383 158.083 C 311.477 158.175,311.345 157.875,311.089 157.417 C 310.832 156.958,310.545 156.508,310.450 156.417 C 310.356 156.325,310.488 156.625,310.745 157.083 M296.917 158.833 C 297.059 159.108,297.213 159.333,297.259 159.333 C 297.304 159.333,297.226 159.108,297.083 158.833 C 296.941 158.558,296.787 158.333,296.741 158.333 C 296.696 158.333,296.774 158.558,296.917 158.833 M311.994 159.250 C 312.296 159.800,312.727 160.569,312.954 160.958 L 313.365 161.667 307.613 161.667 L 301.861 161.667 301.500 161.083 C 301.207 160.609,300.800 160.192,301.053 160.625 C 301.093 160.694,302.684 163.450,304.587 166.750 C 306.491 170.050,312.339 180.175,317.582 189.250 C 322.825 198.325,327.473 206.425,327.909 207.250 C 328.346 208.075,328.762 208.825,328.834 208.917 C 328.951 209.066,329.724 210.397,334.545 218.750 C 335.285 220.033,336.406 221.965,337.035 223.042 L 338.179 225.000 344.108 225.000 C 349.151 225.000,350.022 224.965,349.945 224.764 C 349.895 224.634,348.173 221.616,346.118 218.056 C 344.063 214.496,341.309 209.708,339.999 207.417 C 338.689 205.125,337.337 202.800,336.995 202.250 C 336.653 201.700,330.842 191.650,324.081 179.917 C 317.320 168.183,311.712 158.508,311.617 158.417 C 311.523 158.325,311.693 158.700,311.994 159.250 M285.452 159.333 C 285.641 159.654,286.638 161.379,287.667 163.167 C 289.695 166.690,294.654 175.274,297.969 181.000 C 299.110 182.971,300.455 185.296,300.959 186.167 C 304.481 192.264,307.814 198.025,309.298 200.580 C 310.255 202.228,311.103 203.749,311.183 203.959 C 311.263 204.169,312.015 205.521,312.854 206.962 C 314.336 209.509,315.717 211.891,317.996 215.833 C 320.168 219.590,322.299 223.263,322.782 224.083 L 323.273 224.917 329.155 224.960 C 334.119 224.997,335.023 224.968,334.948 224.773 C 334.900 224.646,332.904 221.152,330.513 217.010 C 328.123 212.868,326.167 209.419,326.167 209.347 C 326.167 209.206,325.815 208.586,322.332 202.583 C 317.745 194.678,314.963 189.860,308.090 177.917 C 306.824 175.717,304.724 172.079,303.423 169.833 C 302.123 167.587,300.251 164.344,299.263 162.625 C 298.276 160.906,297.434 159.500,297.393 159.500 C 297.351 159.500,297.590 159.988,297.924 160.586 L 298.531 161.671 292.731 161.627 L 286.931 161.583 286.174 160.303 C 285.757 159.598,285.347 158.961,285.263 158.886 C 285.178 158.811,285.263 159.012,285.452 159.333 M282.750 159.833 C 282.892 160.108,283.046 160.333,283.092 160.333 C 283.138 160.333,283.059 160.108,282.917 159.833 C 282.774 159.558,282.621 159.333,282.575 159.333 C 282.529 159.333,282.608 159.558,282.750 159.833 M385.742 160.542 L 385.083 161.250 385.792 160.591 C 386.450 159.978,386.577 159.833,386.450 159.833 C 386.423 159.833,386.105 160.152,385.742 160.542 M283.398 160.950 C 283.546 161.243,283.667 161.525,283.667 161.575 C 283.667 161.625,219.842 161.667,141.833 161.667 L 0.000 161.667 0.000 163.167 L 0.000 164.667 136.810 164.667 L 273.620 164.667 276.961 170.458 C 278.798 173.644,282.904 180.750,286.085 186.250 C 289.266 191.750,293.463 199.025,295.411 202.417 C 297.359 205.808,299.289 209.108,299.700 209.750 C 300.111 210.392,302.272 214.085,304.503 217.958 L 308.558 225.000 314.446 225.000 C 317.684 225.000,320.333 224.973,320.333 224.940 C 320.333 224.882,319.620 223.640,314.566 214.893 C 313.340 212.771,311.939 210.296,311.452 209.393 C 310.966 208.489,308.551 204.262,306.087 200.000 C 300.809 190.871,297.861 185.763,294.255 179.500 C 292.804 176.979,290.533 173.042,289.208 170.750 C 287.883 168.458,286.044 165.271,285.121 163.667 C 283.555 160.945,282.775 159.716,283.398 160.950 M321.407 161.667 C 321.429 161.712,321.846 162.447,322.332 163.299 L 323.216 164.848 347.650 164.786 C 364.888 164.742,372.648 164.665,374.000 164.526 C 378.561 164.056,380.761 163.547,383.000 162.446 L 384.417 161.750 373.083 161.708 C 346.150 161.610,321.368 161.590,321.407 161.667 " stroke="none" fill="#c45404" fill-rule="evenodd"></path><path id="path3" d="M291.708 61.288 C 292.052 61.324,292.615 61.324,292.958 61.288 C 293.302 61.252,293.021 61.223,292.333 61.223 C 291.646 61.223,291.365 61.252,291.708 61.288 M142.292 62.121 C 142.590 62.158,143.077 62.158,143.375 62.121 C 143.673 62.084,143.429 62.053,142.833 62.053 C 142.237 62.053,141.994 62.084,142.292 62.121 M387.714 155.750 C 387.716 156.208,387.748 156.376,387.786 156.123 C 387.825 155.869,387.824 155.494,387.784 155.289 C 387.744 155.084,387.713 155.292,387.714 155.750 " stroke="none" fill="#6b5316" fill-rule="evenodd"></path><path id="path4" d="M334.125 164.958 C 340.198 164.983,350.135 164.983,356.208 164.958 C 362.281 164.934,357.313 164.914,345.167 164.914 C 333.021 164.914,328.052 164.934,334.125 164.958 " stroke="none" fill="#423617" fill-rule="evenodd"></path><path id="path5" d="M264.750 20.000 C 264.608 20.275,264.529 20.500,264.575 20.500 C 264.621 20.500,264.774 20.275,264.917 20.000 C 265.059 19.725,265.138 19.500,265.092 19.500 C 265.046 19.500,264.892 19.725,264.750 20.000 M270.375 61.292 C 274.202 61.317,280.465 61.317,284.292 61.292 C 288.119 61.267,284.987 61.246,277.333 61.246 C 269.679 61.246,266.548 61.267,270.375 61.292 M298.625 61.451 C 298.831 61.491,299.169 61.491,299.375 61.451 C 299.581 61.411,299.412 61.379,299.000 61.379 C 298.587 61.379,298.419 61.411,298.625 61.451 M303.460 61.618 C 303.668 61.658,303.968 61.656,304.127 61.615 C 304.286 61.573,304.117 61.540,303.750 61.542 C 303.383 61.544,303.253 61.578,303.460 61.618 M77.292 62.125 C 84.556 62.149,96.444 62.149,103.708 62.125 C 110.973 62.101,105.029 62.081,90.500 62.081 C 75.971 62.081,70.027 62.101,77.292 62.125 M125.542 62.125 C 128.544 62.150,133.456 62.150,136.458 62.125 C 139.460 62.099,137.004 62.079,131.000 62.079 C 124.996 62.079,122.540 62.099,125.542 62.125 M187.292 62.125 C 190.615 62.150,196.052 62.150,199.375 62.125 C 202.698 62.100,199.979 62.079,193.333 62.079 C 186.688 62.079,183.969 62.100,187.292 62.125 M148.875 62.282 C 149.035 62.323,149.298 62.323,149.458 62.282 C 149.619 62.240,149.487 62.205,149.167 62.205 C 148.846 62.205,148.715 62.240,148.875 62.282 M153.042 62.448 C 153.202 62.490,153.465 62.490,153.625 62.448 C 153.785 62.406,153.654 62.372,153.333 62.372 C 153.012 62.372,152.881 62.406,153.042 62.448 M151.039 101.500 C 151.039 101.821,151.073 101.952,151.115 101.792 C 151.157 101.631,151.157 101.369,151.115 101.208 C 151.073 101.048,151.039 101.179,151.039 101.500 M46.208 139.125 C 71.669 139.148,113.331 139.148,138.792 139.125 C 164.252 139.102,143.421 139.083,92.500 139.083 C 41.579 139.083,20.748 139.102,46.208 139.125 " stroke="none" fill="#848422" fill-rule="evenodd"></path><path id="path6" d="M293.794 61.285 C 294.001 61.324,294.301 61.323,294.460 61.281 C 294.620 61.239,294.450 61.207,294.083 61.209 C 293.717 61.211,293.586 61.245,293.794 61.285 M144.127 62.118 C 144.334 62.158,144.634 62.156,144.794 62.115 C 144.953 62.073,144.783 62.040,144.417 62.042 C 144.050 62.044,143.920 62.078,144.127 62.118 " stroke="none" fill="#4c4c1e" fill-rule="evenodd"></path><path id="path7" d="M300.794 61.451 C 301.001 61.491,301.301 61.490,301.460 61.448 C 301.620 61.406,301.450 61.374,301.083 61.375 C 300.717 61.377,300.586 61.411,300.794 61.451 M150.794 62.285 C 151.001 62.324,151.301 62.323,151.460 62.281 C 151.620 62.239,151.450 62.207,151.083 62.209 C 150.717 62.211,150.586 62.245,150.794 62.285 M367.460 164.951 C 367.668 164.991,367.968 164.990,368.127 164.948 C 368.286 164.906,368.117 164.874,367.750 164.875 C 367.383 164.877,367.253 164.911,367.460 164.951 " stroke="none" fill="#34341c" fill-rule="evenodd"></path><path id="path8" d="" stroke="none" fill="#464424" fill-rule="evenodd"></path></g></svg>